<svg xmlns="http://www.w3.org/2000/svg" width="70" height="70" viewBox="0 0 70 70" fill="none"><rect width="70" height="70" rx="8" fill="black"></rect><path d="M35.92 18.016V18.976C34.864 19.168 33.792 19.568 32.704 20.176C31.616 20.784 30.496 21.776 29.344 23.152L20.272 34.288L22.432 30.832L33.904 48.112C34.416 48.848 34.944 49.44 35.488 49.888C36.032 50.336 36.736 50.72 37.6 51.04V52C36.608 51.936 35.472 51.904 34.192 51.904C32.912 51.872 31.744 51.856 30.688 51.856C30.08 51.856 29.312 51.872 28.384 51.904C27.488 51.904 26.352 51.936 24.976 52V51.04C26.256 50.976 27.024 50.8 27.28 50.512C27.536 50.192 27.424 49.648 26.944 48.88L19.936 37.84C19.424 37.008 18.96 36.384 18.544 35.968C18.16 35.552 17.76 35.28 17.344 35.152C16.928 34.992 16.416 34.896 15.808 34.864V33.904C17.152 33.84 18.352 33.488 19.408 32.848C20.464 32.208 21.52 31.264 22.576 30.016L25.984 25.744C27.168 24.336 27.888 23.136 28.144 22.144C28.4 21.152 28.256 20.384 27.712 19.84C27.168 19.296 26.256 19.008 24.976 18.976V18.016C25.68 18.048 26.384 18.08 27.088 18.112C27.792 18.112 28.496 18.128 29.2 18.16C29.936 18.16 30.704 18.16 31.504 18.16C32.432 18.16 33.264 18.144 34 18.112C34.736 18.08 35.376 18.048 35.92 18.016ZM19.696 18.016V18.976C18.672 19.008 17.888 19.136 17.344 19.36C16.832 19.552 16.48 19.936 16.288 20.512C16.096 21.056 16 21.92 16 23.104V46.912C16 48.064 16.096 48.928 16.288 49.504C16.48 50.08 16.832 50.464 17.344 50.656C17.888 50.848 18.672 50.976 19.696 51.04V52C18.896 51.936 17.872 51.904 16.624 51.904C15.376 51.872 14.112 51.856 12.832 51.856C11.392 51.856 10.048 51.872 8.8 51.904C7.552 51.904 6.528 51.936 5.728 52V51.04C6.784 50.976 7.568 50.848 8.08 50.656C8.624 50.464 8.976 50.08 9.136 49.504C9.328 48.928 9.424 48.064 9.424 46.912V23.104C9.424 21.92 9.328 21.056 9.136 20.512C8.976 19.936 8.624 19.552 8.08 19.36C7.568 19.136 6.784 19.008 5.728 18.976V18.016C6.528 18.048 7.552 18.08 8.8 18.112C10.048 18.144 11.392 18.16 12.832 18.16C14.112 18.16 15.376 18.144 16.624 18.112C17.872 18.08 18.896 18.048 19.696 18.016ZM50.527 17.44C52.319 17.44 53.695 17.632 54.655 18.016C55.615 18.4 56.447 18.816 57.151 19.264C57.535 19.488 57.839 19.664 58.063 19.792C58.319 19.888 58.559 19.936 58.783 19.936C59.103 19.936 59.327 19.76 59.455 19.408C59.615 19.056 59.743 18.528 59.839 17.824H60.943C60.911 18.432 60.863 19.136 60.799 19.936C60.767 20.736 60.735 21.808 60.703 23.152C60.703 24.464 60.703 26.208 60.703 28.384H59.599C59.503 26.752 59.135 25.184 58.495 23.68C57.887 22.176 57.007 20.944 55.855 19.984C54.735 18.992 53.295 18.496 51.535 18.496C49.967 18.496 48.655 18.96 47.599 19.888C46.575 20.816 46.063 22.064 46.063 23.632C46.063 24.976 46.399 26.112 47.071 27.04C47.743 27.936 48.687 28.816 49.903 29.68C51.151 30.512 52.623 31.472 54.319 32.56C55.887 33.584 57.295 34.608 58.543 35.632C59.791 36.624 60.767 37.728 61.471 38.944C62.207 40.16 62.575 41.648 62.575 43.408C62.575 45.488 62.063 47.216 61.039 48.592C60.015 49.968 58.639 50.992 56.911 51.664C55.183 52.336 53.295 52.672 51.247 52.672C49.359 52.672 47.855 52.48 46.735 52.096C45.647 51.712 44.703 51.312 43.903 50.896C43.199 50.448 42.655 50.224 42.271 50.224C41.951 50.224 41.711 50.4 41.551 50.752C41.423 51.104 41.311 51.632 41.215 52.336H40.111C40.175 51.6 40.207 50.736 40.207 49.744C40.239 48.752 40.255 47.472 40.255 45.904C40.287 44.304 40.303 42.288 40.303 39.856H41.407C41.535 41.904 41.887 43.824 42.463 45.616C43.071 47.376 43.983 48.8 45.199 49.888C46.447 50.976 48.095 51.52 50.143 51.52C51.263 51.52 52.271 51.328 53.167 50.944C54.095 50.528 54.831 49.904 55.375 49.072C55.919 48.208 56.191 47.12 56.191 45.808C56.191 44.496 55.887 43.344 55.279 42.352C54.671 41.36 53.823 40.432 52.735 39.568C51.647 38.704 50.367 37.824 48.895 36.928C47.391 35.968 45.983 34.992 44.671 34C43.359 33.008 42.303 31.888 41.503 30.64C40.735 29.36 40.351 27.824 40.351 26.032C40.351 24.048 40.831 22.432 41.791 21.184C42.751 19.904 43.999 18.96 45.535 18.352C47.103 17.744 48.767 17.44 50.527 17.44Z" fill="white"></path></svg>